<svg width="162" height="124" viewBox="0 0 162 124" fill="none" xmlns="http://www.w3.org/2000/svg">
<g clip-path="url(#clip0_8_2)">
<path d="M53.3903 50.0647C53.7903 49.7547 54.3203 50.2547 53.9803 50.6147L3.1903 104.255C-1.2897 108.985 -1.0197 116.145 3.8003 120.575C6.5303 123.075 10.2503 124.305 14.1303 123.935C16.9203 123.665 19.5103 122.465 21.5903 120.705L34.0403 110.205C36.7003 112.985 40.5303 114.645 44.7203 114.645H111.16C117.06 114.645 122.52 111.665 125.4 106.875L143.94 76.0247C146.18 72.2947 146.14 67.6847 143.81 64.0047C141.48 60.3047 137.18 58.0147 132.59 58.0147C129.41 58.0147 126.35 59.0947 123.97 61.0647L107.48 74.1747C107.11 74.4647 106.61 73.9947 106.93 73.6547L157.98 19.7447C162.46 15.0147 162.19 7.85471 157.37 3.42471C154.64 0.924707 150.92 -0.305293 147.04 0.0647066C144.25 0.334707 141.66 1.53471 139.58 3.29471L127.13 13.7947C124.47 11.0147 120.64 9.35471 116.45 9.35471H50.0103C44.1103 9.35471 38.6503 12.3347 35.7703 17.1247L17.2303 47.9747C14.9903 51.7047 15.0303 56.3147 17.3603 59.9947C19.6903 63.6947 23.9903 65.9847 28.5803 65.9847C31.7603 65.9847 34.8203 64.9047 37.2003 62.9347L53.4003 50.0647H53.3903Z" fill="#5E378D"/>
<path d="M10.3203 113.985C10.8603 114.495 11.5603 114.745 12.2603 114.745C12.9203 114.745 13.5903 114.515 14.1103 114.065L115.97 25.7247C117.41 24.4747 117.81 22.4747 116.89 20.7847C116.13 19.3847 114.53 18.5947 112.88 18.5947H48.5303C46.2403 18.5947 44.1403 19.7747 43.0203 21.6847L25.0203 52.4847C24.5003 53.3647 24.5103 54.4547 25.0503 55.3247C25.5903 56.2047 26.5803 56.7447 27.6303 56.7447C28.3603 56.7447 29.0603 56.4847 29.6103 56.0247L50.8403 38.0247C51.4303 37.5247 52.2003 37.2447 52.9903 37.2447L70.3603 37.2747C73.1403 37.2747 74.6103 40.4147 72.7803 42.4047L10.1903 110.365C9.2203 111.415 9.2803 113.005 10.3203 113.995V113.985Z" fill="white"/>
<path d="M150.69 9.99471C150.15 9.48471 149.45 9.23471 148.75 9.23471C148.09 9.23471 147.42 9.46471 146.9 9.91471L45.0403 98.2547C43.6003 99.5047 43.2003 101.505 44.1203 103.195C44.8803 104.595 46.4803 105.385 48.1303 105.385H112.48C114.77 105.385 116.87 104.205 117.99 102.295L135.99 71.4947C136.51 70.6147 136.5 69.5247 135.96 68.6547C135.42 67.7747 134.43 67.2347 133.38 67.2347C132.65 67.2347 131.95 67.4947 131.4 67.9547L110.17 85.9547C109.58 86.4547 108.81 86.7347 108.02 86.7347L90.6503 86.7047C87.8703 86.7047 86.4003 83.5647 88.2303 81.5747L150.82 13.6147C151.79 12.5647 151.73 10.9747 150.69 9.98471V9.99471Z" fill="white"/>
</g>
<defs>
<clipPath id="clip0_8_2">
<rect width="162" height="124" fill="white"/>
</clipPath>
</defs>
</svg>
